<?xml version="1.0" encoding="UTF-8" standalone="no"?>
<!-- Created with Inkscape (http://www.inkscape.org/) -->

<svg
   xmlns:dc="http://purl.org/dc/elements/1.1/"
   xmlns:cc="http://creativecommons.org/ns#"
   xmlns:rdf="http://www.w3.org/1999/02/22-rdf-syntax-ns#"
   xmlns:svg="http://www.w3.org/2000/svg"
   xmlns="http://www.w3.org/2000/svg"
   xmlns:sodipodi="http://sodipodi.sourceforge.net/DTD/sodipodi-0.dtd"
   xmlns:inkscape="http://www.inkscape.org/namespaces/inkscape"
   id="svg3390"
   version="1.1"
   inkscape:version="0.91 r13725"
   xml:space="preserve"
   width="54.282249"
   height="54.284"
   viewBox="0 0 54.282249 54.284"
   sodipodi:docname="data.svg"><metadata
     id="metadata3396"><rdf:RDF><cc:Work
         rdf:about=""><dc:format>image/svg+xml</dc:format><dc:type
           rdf:resource="http://purl.org/dc/dcmitype/StillImage" /><dc:title></dc:title></cc:Work></rdf:RDF></metadata><defs
     id="defs3394"><clipPath
       clipPathUnits="userSpaceOnUse"
       id="clipPath3404"><path
         d="m 0,43.427 43.426,0 L 43.426,0 0,0 0,43.427 Z"
         id="path3406"
         inkscape:connector-curvature="0" /></clipPath><clipPath
       clipPathUnits="userSpaceOnUse"
       id="clipPath3412"><path
         d="m 12.209,25.7505 30.9912,0 0,-25.183117 -30.9912,0 0,25.183117 z"
         id="path3414"
         inkscape:connector-curvature="0" /></clipPath></defs><sodipodi:namedview
     pagecolor="#ffffff"
     bordercolor="#666666"
     borderopacity="1"
     objecttolerance="10"
     gridtolerance="10"
     guidetolerance="10"
     inkscape:pageopacity="0"
     inkscape:pageshadow="2"
     inkscape:window-width="1390"
     inkscape:window-height="854"
     id="namedview3392"
     showgrid="false"
     inkscape:zoom="11.955641"
     inkscape:cx="27.141125"
     inkscape:cy="27.142"
     inkscape:window-x="0"
     inkscape:window-y="0"
     inkscape:window-maximized="0"
     inkscape:current-layer="g3398" /><g
     id="g3398"
     inkscape:groupmode="layer"
     inkscape:label="Vector Smart Object11"
     transform="matrix(1.25,0,0,-1.25,0,54.284)"><g
       id="g3400"
       transform="translate(0.06691398,-0.06691403)"><g
         id="g3402"
         clip-path="url(#clipPath3404)"><g
           id="g3408"><g
             id="g3410" /><g
             id="g3416"><g
               clip-path="url(#clipPath3412)"
               id="g3418"
               style="opacity:0.19999701"><g
                 transform="translate(12.209,13.3545)"
                 id="g3420"><path
                   d="m 0,0 12.742,-12.787 c 10.328,1.551 18.249,10.461 18.249,21.223 0,0.322 -0.01,0.642 -0.024,0.96 l -4.384,3 L 0,0 Z"
                   style="fill:#231f20;fill-opacity:1;fill-rule:nonzero;stroke:none"
                   id="path3422"
                   inkscape:connector-curvature="0" /></g></g></g></g><g
           id="g3424"
           transform="translate(0.25,21.7139)"><path
             d="m 0,0 c 0,11.854 9.608,21.463 21.463,21.463 11.853,0 21.463,-9.609 21.463,-21.463 0,-11.854 -9.61,-21.464 -21.463,-21.464 C 9.608,-21.464 0,-11.854 0,0"
             style="fill:#eff4f7;fill-opacity:1;fill-rule:nonzero;stroke:none"
             id="path3426"
             inkscape:connector-curvature="0" /></g><g
           id="g3428"
           transform="translate(0.25,21.7139)"><path
             d="m 0,0 c 0,11.854 9.608,21.463 21.463,21.463 11.853,0 21.463,-9.609 21.463,-21.463 0,-11.854 -9.61,-21.464 -21.463,-21.464 C 9.608,-21.464 0,-11.854 0,0 Z"
             style="fill:none;stroke:#1e6682;stroke-width:0.5;stroke-linecap:butt;stroke-linejoin:miter;stroke-miterlimit:10;stroke-dasharray:none;stroke-opacity:1"
             id="path3430"
             inkscape:connector-curvature="0" /></g><g
           id="g3432"
           transform="translate(10.7422,31.7104)"><path
             d="m 0,0 c -0.013,0.448 0.014,1.015 0.489,1.188 0.366,0.134 2.943,0.343 5.407,0.813 2.429,0.463 4.137,0.946 4.934,1.011 1.536,0.127 6.174,0.297 8.706,0.098 0.814,-0.065 1.163,-0.389 1.165,-1.511 0.006,-4.03 0.245,-12.51 0.854,-22.888 0.058,-0.975 -0.43,-1.434 -1.1,-1.627 -5.332,-1.522 -12.178,-1.714 -17.314,-0.002 -0.733,0.244 -1.184,0.651 -1.363,1.781 C 0.724,-14.589 0.238,-7.072 0,0"
             style="fill:#eff4f7;fill-opacity:1;fill-rule:nonzero;stroke:none"
             id="path3434"
             inkscape:connector-curvature="0" /></g><g
           id="g3436"
           transform="translate(10.7422,31.7104)"><path
             d="m 0,0 c -0.013,0.448 0.014,1.015 0.489,1.188 0.366,0.134 2.943,0.343 5.407,0.813 2.429,0.463 4.137,0.946 4.934,1.011 1.536,0.127 6.174,0.297 8.706,0.098 0.814,-0.065 1.163,-0.389 1.165,-1.511 0.006,-4.03 0.245,-12.51 0.854,-22.888 0.058,-0.975 -0.43,-1.434 -1.1,-1.627 -5.332,-1.522 -12.178,-1.714 -17.314,-0.002 -0.733,0.244 -1.184,0.651 -1.363,1.781 C 0.724,-14.589 0.238,-7.072 0,0 Z"
             style="fill:none;stroke:#206683;stroke-width:0.5;stroke-linecap:butt;stroke-linejoin:miter;stroke-miterlimit:10;stroke-dasharray:none;stroke-opacity:1"
             id="path3438"
             inkscape:connector-curvature="0" /></g><g
           id="g3440"
           transform="translate(20.2451,34.4829)"><path
             d="m 0,0 c -0.908,-0.198 -2.121,-0.488 -3.606,-0.771 -2.451,-0.468 -5.008,-0.676 -5.401,-0.811 0.164,0.03 0.296,-0.071 0.375,-0.169 0.278,-0.335 0.481,-0.728 0.723,-1.329 0.147,-0.36 0.407,-0.522 0.829,-0.267 C -5.374,-2.329 -2.928,-0.751 0,0"
             style="fill:#eff4f7;fill-opacity:1;fill-rule:nonzero;stroke:none"
             id="path3442"
             inkscape:connector-curvature="0" /></g><g
           id="g3444"
           transform="translate(20.2451,34.4829)"><path
             d="m 0,0 c -0.908,-0.198 -2.121,-0.488 -3.606,-0.771 -2.451,-0.468 -5.008,-0.676 -5.401,-0.811 0.164,0.03 0.296,-0.071 0.375,-0.169 0.278,-0.335 0.481,-0.728 0.723,-1.329 0.147,-0.36 0.407,-0.522 0.829,-0.267 C -5.374,-2.329 -2.928,-0.751 0,0 Z"
             style="fill:none;stroke:#206683;stroke-width:0.5;stroke-linecap:butt;stroke-linejoin:miter;stroke-miterlimit:10;stroke-dasharray:none;stroke-opacity:1"
             id="path3446"
             inkscape:connector-curvature="0" /></g><g
           id="g3448"
           transform="translate(13.6406,16.5259)"><path
             d="m 0,0 c -0.023,0 -0.047,0.011 -0.069,0.028 -0.016,0.017 -0.03,0.044 -0.027,0.067 l -0.101,10.624 c 0.001,0.055 0.044,0.096 0.096,0.097 0.054,0 0.094,-0.042 0.094,-0.096 L 0.094,0.193 17.278,0.356 c 0.055,0 0.097,-0.044 0.097,-0.097 0,-0.051 -0.043,-0.096 -0.095,-0.096 L 0,0 Z"
             style="fill:#eff4f7;fill-opacity:1;fill-rule:nonzero;stroke:none"
             id="path3450"
             inkscape:connector-curvature="0" /></g><g
           id="g3452"
           transform="translate(13.6406,16.5259)"><path
             d="m 0,0 c -0.023,0 -0.047,0.011 -0.069,0.028 -0.016,0.017 -0.03,0.044 -0.027,0.067 l -0.101,10.624 c 0.001,0.055 0.044,0.096 0.096,0.097 0.054,0 0.094,-0.042 0.094,-0.096 L 0.094,0.193 17.278,0.356 c 0.055,0 0.097,-0.044 0.097,-0.097 0,-0.051 -0.043,-0.096 -0.095,-0.096 L 0,0 Z"
             style="fill:none;stroke:#206683;stroke-width:0.5;stroke-linecap:butt;stroke-linejoin:miter;stroke-miterlimit:10;stroke-dasharray:none;stroke-opacity:1"
             id="path3454"
             inkscape:connector-curvature="0" /></g><g
           id="g3456"
           transform="translate(15.3682,16.6396)"><path
             d="M 0,0 -0.021,2.313 1.896,2.33 1.92,0.018 0,0 Z"
             style="fill:#eff4f7;fill-opacity:1;fill-rule:nonzero;stroke:none"
             id="path3458"
             inkscape:connector-curvature="0" /></g><g
           id="g3460"
           transform="translate(15.3682,16.6396)"><path
             d="M 0,0 -0.021,2.313 1.896,2.33 1.92,0.018 0,0 Z"
             style="fill:none;stroke:#206683;stroke-width:0.5;stroke-linecap:butt;stroke-linejoin:miter;stroke-miterlimit:10;stroke-dasharray:none;stroke-opacity:1"
             id="path3462"
             inkscape:connector-curvature="0" /></g><g
           id="g3464"
           transform="translate(18.4395,16.667)"><path
             d="M 0,0 -0.037,3.841 1.886,3.86 1.921,0.019 0,0 Z"
             style="fill:#eff4f7;fill-opacity:1;fill-rule:nonzero;stroke:none"
             id="path3466"
             inkscape:connector-curvature="0" /></g><g
           id="g3468"
           transform="translate(18.4395,16.667)"><path
             d="M 0,0 -0.037,3.841 1.886,3.86 1.921,0.019 0,0 Z"
             style="fill:none;stroke:#206683;stroke-width:0.5;stroke-linecap:butt;stroke-linejoin:miter;stroke-miterlimit:10;stroke-dasharray:none;stroke-opacity:1"
             id="path3470"
             inkscape:connector-curvature="0" /></g><g
           id="g3472"
           transform="translate(21.5098,16.6968)"><path
             d="M 0,0 -0.045,5.17 1.873,5.187 1.924,0.019 0,0 Z"
             style="fill:#eff4f7;fill-opacity:1;fill-rule:nonzero;stroke:none"
             id="path3474"
             inkscape:connector-curvature="0" /></g><g
           id="g3476"
           transform="translate(21.5098,16.6968)"><path
             d="M 0,0 -0.045,5.17 1.873,5.187 1.924,0.019 0,0 Z"
             style="fill:none;stroke:#206683;stroke-width:0.5;stroke-linecap:butt;stroke-linejoin:miter;stroke-miterlimit:10;stroke-dasharray:none;stroke-opacity:1"
             id="path3478"
             inkscape:connector-curvature="0" /></g><g
           id="g3480"
           transform="translate(24.582,16.7246)"><path
             d="M 0,0 -0.072,8.161 1.846,8.178 1.926,0.019 0,0 Z"
             style="fill:#eff4f7;fill-opacity:1;fill-rule:nonzero;stroke:none"
             id="path3482"
             inkscape:connector-curvature="0" /></g><g
           id="g3484"
           transform="translate(24.582,16.7246)"><path
             d="M 0,0 -0.072,8.161 1.846,8.178 1.926,0.019 0,0 Z"
             style="fill:none;stroke:#206683;stroke-width:0.5;stroke-linecap:butt;stroke-linejoin:miter;stroke-miterlimit:10;stroke-dasharray:none;stroke-opacity:1"
             id="path3486"
             inkscape:connector-curvature="0" /></g><g
           id="g3488"
           transform="translate(27.6543,16.7549)"><path
             d="M 0,0 -0.091,9.885 1.828,9.905 1.923,0.018 0,0 Z"
             style="fill:#eff4f7;fill-opacity:1;fill-rule:nonzero;stroke:none"
             id="path3490"
             inkscape:connector-curvature="0" /></g><g
           id="g3492"
           transform="translate(27.6543,16.7549)"><path
             d="M 0,0 -0.091,9.885 1.828,9.905 1.923,0.018 0,0 Z"
             style="fill:none;stroke:#206683;stroke-width:0.5;stroke-linecap:butt;stroke-linejoin:miter;stroke-miterlimit:10;stroke-dasharray:none;stroke-opacity:1"
             id="path3494"
             inkscape:connector-curvature="0" /></g><g
           id="g3496"
           transform="translate(14.1426,26.5215)"><path
             d="m 0,0 -0.598,0.589 -0.59,-0.6 c -0.039,-0.038 -0.098,-0.038 -0.136,-0.002 -0.041,0.037 -0.04,0.098 -0.003,0.137 l 0.657,0.668 c 0.037,0.039 0.096,0.039 0.137,0.001 l 0.666,-0.656 0,-0.001 C 0.169,0.1 0.172,0.038 0.133,0 0.114,-0.019 0.094,-0.027 0.065,-0.027 0.04,-0.028 0.017,-0.019 0,0"
             style="fill:#eff4f7;fill-opacity:1;fill-rule:nonzero;stroke:none"
             id="path3498"
             inkscape:connector-curvature="0" /></g><g
           id="g3500"
           transform="translate(14.1426,26.5215)"><path
             d="m 0,0 -0.598,0.589 -0.59,-0.6 c -0.039,-0.038 -0.098,-0.038 -0.136,-0.002 -0.041,0.037 -0.04,0.098 -0.003,0.137 l 0.657,0.668 c 0.037,0.039 0.096,0.039 0.137,0.001 l 0.666,-0.656 0,-0.001 C 0.169,0.1 0.172,0.038 0.133,0 0.114,-0.019 0.094,-0.027 0.065,-0.027 0.04,-0.028 0.017,-0.019 0,0 Z"
             style="fill:none;stroke:#206683;stroke-width:0.5;stroke-linecap:butt;stroke-linejoin:miter;stroke-miterlimit:10;stroke-dasharray:none;stroke-opacity:1"
             id="path3502"
             inkscape:connector-curvature="0" /></g><g
           id="g3504"
           transform="translate(30.1953,16.0469)"><path
             d="m 0,0 c -0.038,0.037 -0.038,0.099 -0.001,0.137 l 0.589,0.598 -0.603,0.591 c -0.038,0.037 -0.036,0.098 0,0.136 0.037,0.038 0.101,0.038 0.138,0 L 0.792,0.807 C 0.81,0.789 0.82,0.765 0.82,0.738 0.82,0.712 0.81,0.689 0.795,0.67 L 0.135,0.002 C 0.118,-0.016 0.092,-0.026 0.069,-0.026 0.045,-0.026 0.02,-0.018 0,0"
             style="fill:#eff4f7;fill-opacity:1;fill-rule:nonzero;stroke:none"
             id="path3506"
             inkscape:connector-curvature="0" /></g><g
           id="g3508"
           transform="translate(30.1953,16.0469)"><path
             d="m 0,0 c -0.038,0.037 -0.038,0.099 -0.001,0.137 l 0.589,0.598 -0.603,0.591 c -0.038,0.037 -0.036,0.098 0,0.136 0.037,0.038 0.101,0.038 0.138,0 L 0.792,0.807 C 0.81,0.789 0.82,0.765 0.82,0.738 0.82,0.712 0.81,0.689 0.795,0.67 L 0.135,0.002 C 0.118,-0.016 0.092,-0.026 0.069,-0.026 0.045,-0.026 0.02,-0.018 0,0 Z"
             style="fill:none;stroke:#206683;stroke-width:0.5;stroke-linecap:butt;stroke-linejoin:miter;stroke-miterlimit:10;stroke-dasharray:none;stroke-opacity:1"
             id="path3510"
             inkscape:connector-curvature="0" /></g></g></g></g></svg>