<?xml version="1.0" encoding="UTF-8" standalone="no"?>
<!-- Created with Inkscape (http://www.inkscape.org/) -->

<svg
   xmlns:dc="http://purl.org/dc/elements/1.1/"
   xmlns:cc="http://creativecommons.org/ns#"
   xmlns:rdf="http://www.w3.org/1999/02/22-rdf-syntax-ns#"
   xmlns:svg="http://www.w3.org/2000/svg"
   xmlns="http://www.w3.org/2000/svg"
   xmlns:sodipodi="http://sodipodi.sourceforge.net/DTD/sodipodi-0.dtd"
   xmlns:inkscape="http://www.inkscape.org/namespaces/inkscape"
   id="svg2"
   version="1.1"
   inkscape:version="0.91 r13725"
   xml:space="preserve"
   width="54.282249"
   height="54.283501"
   viewBox="0 0 54.282249 54.283501"
   sodipodi:docname="newspaper.svg"><metadata
     id="metadata8"><rdf:RDF><cc:Work
         rdf:about=""><dc:format>image/svg+xml</dc:format><dc:type
           rdf:resource="http://purl.org/dc/dcmitype/StillImage" /><dc:title></dc:title></cc:Work></rdf:RDF></metadata><defs
     id="defs6"><clipPath
       clipPathUnits="userSpaceOnUse"
       id="clipPath16"><path
         d="m 0,43.427 43.426,0 L 43.426,0 0,0 0,43.427 Z"
         id="path18"
         inkscape:connector-curvature="0" /></clipPath><clipPath
       clipPathUnits="userSpaceOnUse"
       id="clipPath112"><path
         d="m 0,43.427 43.426,0 L 43.426,0 0,0 0,43.427 Z"
         id="path114"
         inkscape:connector-curvature="0" /></clipPath><clipPath
       clipPathUnits="userSpaceOnUse"
       id="clipPath120"><path
         d="m 12.209,25.751 30.9912,0 0,-25.183617 -30.9912,0 0,25.183617 z"
         id="path122"
         inkscape:connector-curvature="0" /></clipPath></defs><sodipodi:namedview
     pagecolor="#ffffff"
     bordercolor="#666666"
     borderopacity="1"
     objecttolerance="10"
     gridtolerance="10"
     guidetolerance="10"
     inkscape:pageopacity="0"
     inkscape:pageshadow="2"
     inkscape:window-width="640"
     inkscape:window-height="480"
     id="namedview4"
     showgrid="false"
     inkscape:zoom="4.3475457"
     inkscape:cx="27.141125"
     inkscape:cy="27.14175"
     inkscape:window-x="0"
     inkscape:window-y="23"
     inkscape:window-maximized="0"
     inkscape:current-layer="g10" /><g
     id="g10"
     inkscape:groupmode="layer"
     inkscape:label="newspaper"
     transform="matrix(1.25,0,0,-1.25,0,54.2835)"><g
       id="g12"><g
         id="g14"
         clip-path="url(#clipPath16)"><g
           id="g20"
           transform="translate(21.6094,0.2002)"><path
             d="m 0,0 c -11.855,0 -21.465,9.609 -21.465,21.465 0,11.853 9.61,21.463 21.465,21.463 11.853,0 21.463,-9.61 21.463,-21.463 C 21.463,9.609 11.853,0 0,0"
             style="fill:#eff4f7;fill-opacity:1;fill-rule:nonzero;stroke:none"
             id="path22"
             inkscape:connector-curvature="0" /></g><g
           id="g24"
           transform="translate(21.6094,0.2002)"><path
             d="m 0,0 c -11.855,0 -21.465,9.609 -21.465,21.465 0,11.853 9.61,21.463 21.465,21.463 11.853,0 21.463,-9.61 21.463,-21.463 C 21.463,9.609 11.853,0 0,0 Z"
             style="fill:none;stroke:#e93f72;stroke-width:0.25;stroke-linecap:butt;stroke-linejoin:miter;stroke-miterlimit:10;stroke-dasharray:none;stroke-opacity:1"
             id="path26"
             inkscape:connector-curvature="0" /></g><g
           id="g28"
           transform="translate(9.8652,32.7568)"><path
             d="m 0,0 c -0.002,0.464 0.042,1.047 0.538,1.213 0.382,0.128 3.048,0.271 5.608,0.685 2.522,0.411 4.299,0.861 5.125,0.905 1.589,0.087 6.385,0.13 8.996,-0.147 0.838,-0.092 1.191,-0.436 1.159,-1.594 -0.109,-4.164 -0.103,-12.927 0.23,-23.665 0.033,-1.009 -0.485,-1.468 -1.184,-1.648 -5.55,-1.421 -12.626,-1.424 -17.882,0.489 -0.75,0.275 -1.203,0.708 -1.356,1.88 C 0.332,-15.09 0.042,-7.311 0,0"
             style="fill:#eff4f7;fill-opacity:1;fill-rule:nonzero;stroke:none"
             id="path30"
             inkscape:connector-curvature="0" /></g><g
           id="g32"
           transform="translate(9.8652,32.7568)"><path
             d="m 0,0 c -0.002,0.464 0.042,1.047 0.538,1.213 0.382,0.128 3.048,0.271 5.608,0.685 2.522,0.411 4.299,0.861 5.125,0.905 1.589,0.087 6.385,0.13 8.996,-0.147 0.838,-0.092 1.191,-0.436 1.159,-1.594 -0.109,-4.164 -0.103,-12.927 0.23,-23.665 0.033,-1.009 -0.485,-1.468 -1.184,-1.648 -5.55,-1.421 -12.626,-1.424 -17.882,0.489 -0.75,0.275 -1.203,0.708 -1.356,1.88 C 0.332,-15.09 0.042,-7.311 0,0 Z"
             style="fill:none;stroke:#e93f72;stroke-width:0.25;stroke-linecap:butt;stroke-linejoin:miter;stroke-miterlimit:10;stroke-dasharray:none;stroke-opacity:1"
             id="path34"
             inkscape:connector-curvature="0" /></g><g
           id="g36"
           transform="translate(19.7588,35.3486)"><path
             d="m 0,0 c -0.943,-0.178 -2.206,-0.442 -3.747,-0.693 -2.545,-0.411 -5.191,-0.556 -5.601,-0.684 0.169,0.027 0.302,-0.081 0.383,-0.185 0.277,-0.354 0.475,-0.766 0.708,-1.393 0.141,-0.377 0.406,-0.549 0.849,-0.299 C -5.617,-2.252 -3.047,-0.69 0,0"
             style="fill:#eff4f7;fill-opacity:1;fill-rule:nonzero;stroke:none"
             id="path38"
             inkscape:connector-curvature="0" /></g><g
           id="g40"
           transform="translate(19.7588,35.3486)"><path
             d="m 0,0 c -0.943,-0.178 -2.206,-0.442 -3.747,-0.693 -2.545,-0.411 -5.191,-0.556 -5.601,-0.684 0.169,0.027 0.302,-0.081 0.383,-0.185 0.277,-0.354 0.475,-0.766 0.708,-1.393 0.141,-0.377 0.406,-0.549 0.849,-0.299 C -5.617,-2.252 -3.047,-0.69 0,0 Z"
             style="fill:none;stroke:#e93f72;stroke-width:0.25;stroke-linecap:butt;stroke-linejoin:miter;stroke-miterlimit:10;stroke-dasharray:none;stroke-opacity:1"
             id="path42"
             inkscape:connector-curvature="0" /></g><g
           id="g44"
           transform="translate(12.4248,16.9912)"><path
             d="m 0,0 c -0.024,0 -0.049,0.012 -0.07,0.03 -0.017,0.019 -0.029,0.046 -0.026,0.069 l 0.199,10.977 c 0.001,0.058 0.046,0.098 0.101,0.098 0.056,-0.002 0.097,-0.046 0.095,-0.101 L 0.103,0.196 17.856,-0.127 c 0.058,0 0.099,-0.047 0.098,-0.101 -0.002,-0.053 -0.048,-0.097 -0.102,-0.097 L 0,0 Z"
             style="fill:#eff4f7;fill-opacity:1;fill-rule:nonzero;stroke:none"
             id="path46"
             inkscape:connector-curvature="0" /></g><g
           id="g48"
           transform="translate(12.4248,16.9912)"><path
             d="m 0,0 c -0.024,0 -0.049,0.012 -0.07,0.03 -0.017,0.019 -0.029,0.046 -0.026,0.069 l 0.199,10.977 c 0.001,0.058 0.046,0.098 0.101,0.098 0.056,-0.002 0.097,-0.046 0.095,-0.101 L 0.103,0.196 17.856,-0.127 c 0.058,0 0.099,-0.047 0.098,-0.101 -0.002,-0.053 -0.048,-0.097 -0.102,-0.097 L 0,0 Z"
             style="fill:none;stroke:#e93f72;stroke-width:0.25;stroke-linecap:butt;stroke-linejoin:miter;stroke-miterlimit:10;stroke-dasharray:none;stroke-opacity:1"
             id="path50"
             inkscape:connector-curvature="0" /></g><g
           id="g52"
           transform="translate(14.2129,17.0586)"><path
             d="M 0,0 0.043,2.389 2.026,2.354 1.983,-0.035 0,0 Z"
             style="fill:#eff4f7;fill-opacity:1;fill-rule:nonzero;stroke:none"
             id="path54"
             inkscape:connector-curvature="0" /></g><g
           id="g56"
           transform="translate(14.2129,17.0586)"><path
             d="M 0,0 0.043,2.389 2.026,2.354 1.983,-0.035 0,0 Z"
             style="fill:none;stroke:#e93f72;stroke-width:0.25;stroke-linecap:butt;stroke-linejoin:miter;stroke-miterlimit:10;stroke-dasharray:none;stroke-opacity:1"
             id="path58"
             inkscape:connector-curvature="0" /></g><g
           id="g60"
           transform="translate(17.3867,16.999)"><path
             d="M 0,0 0.069,3.97 2.056,3.933 1.984,-0.034 0,0 Z"
             style="fill:#eff4f7;fill-opacity:1;fill-rule:nonzero;stroke:none"
             id="path62"
             inkscape:connector-curvature="0" /></g><g
           id="g64"
           transform="translate(17.3867,16.999)"><path
             d="M 0,0 0.069,3.97 2.056,3.933 1.984,-0.034 0,0 Z"
             style="fill:none;stroke:#e93f72;stroke-width:0.25;stroke-linecap:butt;stroke-linejoin:miter;stroke-miterlimit:10;stroke-dasharray:none;stroke-opacity:1"
             id="path66"
             inkscape:connector-curvature="0" /></g><g
           id="g68"
           transform="translate(20.5576,16.9424)"><path
             d="M 0,0 0.102,5.34 2.084,5.305 1.986,-0.035 0,0 Z"
             style="fill:#eff4f7;fill-opacity:1;fill-rule:nonzero;stroke:none"
             id="path70"
             inkscape:connector-curvature="0" /></g><g
           id="g72"
           transform="translate(20.5576,16.9424)"><path
             d="M 0,0 0.102,5.34 2.084,5.305 1.986,-0.035 0,0 Z"
             style="fill:none;stroke:#e93f72;stroke-width:0.25;stroke-linecap:butt;stroke-linejoin:miter;stroke-miterlimit:10;stroke-dasharray:none;stroke-opacity:1"
             id="path74"
             inkscape:connector-curvature="0" /></g><g
           id="g76"
           transform="translate(23.7324,16.8828)"><path
             d="M 0,0 0.157,8.432 2.14,8.396 1.988,-0.035 0,0 Z"
             style="fill:#eff4f7;fill-opacity:1;fill-rule:nonzero;stroke:none"
             id="path78"
             inkscape:connector-curvature="0" /></g><g
           id="g80"
           transform="translate(23.7324,16.8828)"><path
             d="M 0,0 0.157,8.432 2.14,8.396 1.988,-0.035 0,0 Z"
             style="fill:none;stroke:#e93f72;stroke-width:0.25;stroke-linecap:butt;stroke-linejoin:miter;stroke-miterlimit:10;stroke-dasharray:none;stroke-opacity:1"
             id="path82"
             inkscape:connector-curvature="0" /></g><g
           id="g84"
           transform="translate(26.9063,16.8281)"><path
             d="M 0,0 0.187,10.212 2.169,10.177 1.986,-0.037 0,0 Z"
             style="fill:#eff4f7;fill-opacity:1;fill-rule:nonzero;stroke:none"
             id="path86"
             inkscape:connector-curvature="0" /></g><g
           id="g88"
           transform="translate(26.9063,16.8281)"><path
             d="M 0,0 0.187,10.212 2.169,10.177 1.986,-0.037 0,0 Z"
             style="fill:none;stroke:#e93f72;stroke-width:0.25;stroke-linecap:butt;stroke-linejoin:miter;stroke-miterlimit:10;stroke-dasharray:none;stroke-opacity:1"
             id="path90"
             inkscape:connector-curvature="0" /></g><g
           id="g92"
           transform="translate(13.2285,27.3018)"><path
             d="M 0,0 -0.601,0.623 -1.229,0.021 c -0.04,-0.039 -0.101,-0.037 -0.137,10e-4 -0.043,0.04 -0.04,0.104 -0.002,0.142 l 0.699,0.67 c 0.039,0.041 0.101,0.04 0.14,-0.002 L 0.143,0.137 0.141,0.136 C 0.178,0.098 0.178,0.031 0.138,-0.005 0.119,-0.023 0.095,-0.031 0.067,-0.031 0.042,-0.031 0.018,-0.021 0,0"
             style="fill:#eff4f7;fill-opacity:1;fill-rule:nonzero;stroke:none"
             id="path94"
             inkscape:connector-curvature="0" /></g><g
           id="g96"
           transform="translate(13.2285,27.3018)"><path
             d="M 0,0 -0.601,0.623 -1.229,0.021 c -0.04,-0.039 -0.101,-0.037 -0.137,10e-4 -0.043,0.04 -0.04,0.104 -0.002,0.142 l 0.699,0.67 c 0.039,0.041 0.101,0.04 0.14,-0.002 L 0.143,0.137 0.141,0.136 C 0.178,0.098 0.178,0.031 0.138,-0.005 0.119,-0.023 0.095,-0.031 0.067,-0.031 0.042,-0.031 0.018,-0.021 0,0 Z"
             style="fill:none;stroke:#e93f72;stroke-width:0.25;stroke-linecap:butt;stroke-linejoin:miter;stroke-miterlimit:10;stroke-dasharray:none;stroke-opacity:1"
             id="path98"
             inkscape:connector-curvature="0" /></g><g
           id="g100"
           transform="translate(29.5107,16.0234)"><path
             d="M 0,0 C -0.038,0.04 -0.037,0.104 0.003,0.143 L 0.628,0.743 0.022,1.37 C -0.016,1.408 -0.013,1.473 0.025,1.513 0.066,1.551 0.133,1.548 0.169,1.508 L 0.841,0.812 C 0.857,0.791 0.869,0.768 0.868,0.74 0.865,0.713 0.857,0.69 0.839,0.67 L 0.14,0 C 0.12,-0.02 0.093,-0.027 0.07,-0.028 0.046,-0.028 0.02,-0.018 0,0"
             style="fill:#eff4f7;fill-opacity:1;fill-rule:nonzero;stroke:none"
             id="path102"
             inkscape:connector-curvature="0" /></g><g
           id="g104"
           transform="translate(29.5107,16.0234)"><path
             d="M 0,0 C -0.038,0.04 -0.037,0.104 0.003,0.143 L 0.628,0.743 0.022,1.37 C -0.016,1.408 -0.013,1.473 0.025,1.513 0.066,1.551 0.133,1.548 0.169,1.508 L 0.841,0.812 C 0.857,0.791 0.869,0.768 0.868,0.74 0.865,0.713 0.857,0.69 0.839,0.67 L 0.14,0 C 0.12,-0.02 0.093,-0.027 0.07,-0.028 0.046,-0.028 0.02,-0.018 0,0 Z"
             style="fill:none;stroke:#e93f72;stroke-width:0.25;stroke-linecap:butt;stroke-linejoin:miter;stroke-miterlimit:10;stroke-dasharray:none;stroke-opacity:1"
             id="path106"
             inkscape:connector-curvature="0" /></g></g></g><g
       id="g108"><g
         id="g110"
         clip-path="url(#clipPath112)"><g
           id="g116"><g
             id="g118" /><g
             id="g124"><g
               clip-path="url(#clipPath120)"
               id="g126"
               style="opacity:0.19999701"><g
                 transform="translate(12.209,13.3545)"
                 id="g128"><path
                   d="m 0,0 12.742,-12.787 c 10.328,1.551 18.249,10.461 18.249,21.223 0,0.322 -0.01,0.642 -0.024,0.96 l -4.384,3 L 0,0 Z"
                   style="fill:#231f20;fill-opacity:1;fill-rule:nonzero;stroke:none"
                   id="path130"
                   inkscape:connector-curvature="0" /></g></g></g></g><g
           id="g132"
           transform="translate(0.25,21.7139)"><path
             d="m 0,0 c 0,11.854 9.608,21.463 21.463,21.463 11.853,0 21.463,-9.609 21.463,-21.463 0,-11.854 -9.61,-21.464 -21.463,-21.464 C 9.608,-21.464 0,-11.854 0,0"
             style="fill:#eff4f7;fill-opacity:1;fill-rule:nonzero;stroke:none"
             id="path134"
             inkscape:connector-curvature="0" /></g><g
           id="g136"
           transform="translate(0.25,21.7139)"><path
             d="m 0,0 c 0,11.854 9.608,21.463 21.463,21.463 11.853,0 21.463,-9.609 21.463,-21.463 0,-11.854 -9.61,-21.464 -21.463,-21.464 C 9.608,-21.464 0,-11.854 0,0 Z"
             style="fill:none;stroke:#e93f72;stroke-width:0.5;stroke-linecap:butt;stroke-linejoin:miter;stroke-miterlimit:10;stroke-dasharray:none;stroke-opacity:1"
             id="path138"
             inkscape:connector-curvature="0" /></g><g
           id="g140"
           transform="translate(12.252,8.7295)"><path
             d="m 0,0 c 0,0 0.656,0.69 0.701,2.309 0.125,4.342 -0.504,10.4 -1.103,14.299 -0.22,1.413 -0.627,4.477 -0.807,5.792 -0.18,1.312 0.75,2.298 1.803,2.327 1.009,0.023 10.466,0.293 11.573,0.321 1.011,0.025 1.88,-0.318 2.555,-0.683 0.675,-0.365 7.094,-3.605 7.094,-3.605 0,0 0.725,-5.255 0.918,-8.915 C 22.93,8.184 22.689,4.479 22.435,3.551 22.184,2.623 21.358,2.096 21.026,2.135 20.693,2.174 18.608,2.754 12.011,1.994 5.41,1.232 0,0 0,0"
             style="fill:#eff4f7;fill-opacity:1;fill-rule:nonzero;stroke:none"
             id="path142"
             inkscape:connector-curvature="0" /></g><g
           id="g144"
           transform="translate(12.252,8.7295)"><path
             d="m 0,0 c 0,0 0.656,0.69 0.701,2.309 0.125,4.342 -0.504,10.4 -1.103,14.299 -0.22,1.413 -0.627,4.477 -0.807,5.792 -0.18,1.312 0.75,2.298 1.803,2.327 1.009,0.023 10.466,0.293 11.573,0.321 1.011,0.025 1.88,-0.318 2.555,-0.683 0.675,-0.365 7.094,-3.605 7.094,-3.605 0,0 0.725,-5.255 0.918,-8.915 C 22.93,8.184 22.689,4.479 22.435,3.551 22.184,2.623 21.358,2.096 21.026,2.135 20.693,2.174 18.608,2.754 12.011,1.994 5.41,1.232 0,0 0,0 Z"
             style="fill:none;stroke:#e93f72;stroke-width:0.5;stroke-linecap:butt;stroke-linejoin:miter;stroke-miterlimit:10;stroke-dasharray:none;stroke-opacity:1"
             id="path146"
             inkscape:connector-curvature="0" /></g><g
           id="g148"
           transform="translate(35.1494,29.1016)"><path
             d="M 0,0 C 0.428,0.81 0.23,1.552 -0.463,1.8 -1.15,2.047 -2.03,2.294 -3.77,2.783 c -1.737,0.491 -3.886,1.15 -5.176,1.568 0,0 1.236,-0.602 1.958,-0.971 2.584,-1.324 4.566,-3.711 5.12,-4.407 C -1.317,-1.727 -0.433,-0.813 0,0"
             style="fill:#eff4f7;fill-opacity:1;fill-rule:nonzero;stroke:none"
             id="path150"
             inkscape:connector-curvature="0" /></g><g
           id="g152"
           transform="translate(35.1494,29.1016)"><path
             d="M 0,0 C 0.428,0.81 0.23,1.552 -0.463,1.8 -1.15,2.047 -2.03,2.294 -3.77,2.783 c -1.737,0.491 -3.886,1.15 -5.176,1.568 0,0 1.236,-0.602 1.958,-0.971 2.584,-1.324 4.566,-3.711 5.12,-4.407 C -1.317,-1.727 -0.433,-0.813 0,0 Z"
             style="fill:none;stroke:#e93f72;stroke-width:0.5;stroke-linecap:butt;stroke-linejoin:miter;stroke-miterlimit:10;stroke-dasharray:none;stroke-opacity:1"
             id="path154"
             inkscape:connector-curvature="0" /></g><g
           id="g156"
           transform="translate(27.4922,12.0518)"><path
             d="m 0,0 c -0.116,-0.446 -0.363,-0.814 -0.621,-1.076 1.481,0.113 2.65,0.146 3.556,0.137 0.342,0.253 0.715,0.705 0.871,1.294 C 3.829,0.438 3.848,0.543 3.868,0.664 2.959,0.755 1.744,0.828 0.141,0.843 0.097,0.473 0.05,0.185 0,0 M -3.261,3.198 C -3.729,3.179 -4.195,3.154 -4.65,3.133 -4.706,1.219 -4.849,-0.313 -4.997,-0.873 c -0.071,-0.272 -0.187,-0.51 -0.326,-0.717 0.68,0.09 1.378,0.178 2.094,0.262 0.622,0.072 1.205,0.131 1.751,0.178 0.24,0.261 0.46,0.607 0.569,1.021 0.131,0.502 0.261,1.775 0.325,3.397 -0.811,-0.004 -1.7,-0.029 -2.677,-0.07 m -8.14,2.437 c 0.156,-2.162 0.235,-4.307 0.186,-6.137 -0.025,-0.845 -0.213,-1.428 -0.389,-1.793 0.343,0.051 0.7,0.104 1.058,0.15 -0.363,-0.051 -0.715,-0.103 -1.064,-0.159 -0.068,-0.137 -0.132,-0.247 -0.187,-0.324 1.519,0.282 3.447,0.612 5.604,0.917 0.138,0.208 0.258,0.448 0.328,0.722 0.222,0.844 0.434,3.873 0.348,7.098 -2.204,-0.135 -4.217,-0.31 -5.884,-0.474 M 4.17,6.207 C 3.196,6.279 1.946,6.33 0.362,6.326 0.387,4.319 0.304,2.455 0.183,1.231 1.771,1.224 2.997,1.158 3.932,1.073 4.068,2.166 4.181,4.082 4.17,6.207 M -3.344,4.102 c 1.026,0.042 1.948,0.066 2.785,0.074 0.018,0.678 0.02,1.4 0.007,2.14 C -1.245,6.307 -1.995,6.283 -2.811,6.25 -3.434,6.225 -4.047,6.193 -4.65,6.16 c 0.021,-0.725 0.023,-1.438 0.017,-2.119 0.425,0.021 0.853,0.043 1.289,0.061"
             style="fill:#eff4f7;fill-opacity:1;fill-rule:nonzero;stroke:none"
             id="path158"
             inkscape:connector-curvature="0" /></g><g
           id="g160"
           transform="translate(27.4922,12.0518)"><path
             d="m 0,0 c -0.116,-0.446 -0.363,-0.814 -0.621,-1.076 1.481,0.113 2.65,0.146 3.556,0.137 0.342,0.253 0.715,0.705 0.871,1.294 C 3.829,0.438 3.848,0.543 3.868,0.664 2.959,0.755 1.744,0.828 0.141,0.843 0.097,0.473 0.05,0.185 0,0 Z M -3.261,3.198 C -3.729,3.179 -4.195,3.154 -4.65,3.133 -4.706,1.219 -4.849,-0.313 -4.997,-0.873 c -0.071,-0.272 -0.187,-0.51 -0.326,-0.717 0.68,0.09 1.378,0.178 2.094,0.262 0.622,0.072 1.205,0.131 1.751,0.178 0.24,0.261 0.46,0.607 0.569,1.021 0.131,0.502 0.261,1.775 0.325,3.397 -0.811,-0.004 -1.7,-0.029 -2.677,-0.07 z m -8.14,2.437 c 0.156,-2.162 0.235,-4.307 0.186,-6.137 -0.025,-0.845 -0.213,-1.428 -0.389,-1.793 0.343,0.051 0.7,0.104 1.058,0.15 -0.363,-0.051 -0.715,-0.103 -1.064,-0.159 -0.068,-0.137 -0.132,-0.247 -0.187,-0.324 1.519,0.282 3.447,0.612 5.604,0.917 0.138,0.208 0.258,0.448 0.328,0.722 0.222,0.844 0.434,3.873 0.348,7.098 -2.204,-0.135 -4.217,-0.31 -5.884,-0.474 z M 4.17,6.207 C 3.196,6.279 1.946,6.33 0.362,6.326 0.387,4.319 0.304,2.455 0.183,1.231 1.771,1.224 2.997,1.158 3.932,1.073 4.068,2.166 4.181,4.082 4.17,6.207 Z M -3.344,4.102 c 1.026,0.042 1.948,0.066 2.785,0.074 0.018,0.678 0.02,1.4 0.007,2.14 C -1.245,6.307 -1.995,6.283 -2.811,6.25 -3.434,6.225 -4.047,6.193 -4.65,6.16 c 0.021,-0.725 0.023,-1.438 0.017,-2.119 0.425,0.021 0.853,0.043 1.289,0.061 z"
             style="fill:none;stroke:#e93f72;stroke-width:0.5;stroke-linecap:butt;stroke-linejoin:miter;stroke-miterlimit:10;stroke-dasharray:none;stroke-opacity:1"
             id="path162"
             inkscape:connector-curvature="0" /></g><g
           id="g164"
           transform="translate(31.5576,21.3818)"><path
             d="m 0,0 c -0.018,0.243 -0.04,0.498 -0.06,0.759 -1.555,0.122 -3.836,0.193 -7.113,0.055 -3.291,-0.138 -6.31,-0.389 -8.651,-0.625 0.029,-0.251 0.055,-0.507 0.086,-0.765 2.339,0.236 5.367,0.485 8.664,0.625 C -3.824,0.187 -1.56,0.121 0,0 m 0.052,-0.909 c -1.55,0.113 -3.773,0.169 -6.905,0.038 -3.358,-0.14 -6.438,-0.399 -8.795,-0.639 0.009,-0.076 0.013,-0.157 0.021,-0.236 2.357,0.24 5.439,0.498 8.796,0.639 3.124,0.13 5.344,0.074 6.89,-0.039 -0.002,0.08 -0.005,0.16 -0.007,0.237"
             style="fill:#eff4f7;fill-opacity:1;fill-rule:nonzero;stroke:none"
             id="path166"
             inkscape:connector-curvature="0" /></g><g
           id="g168"
           transform="translate(31.5576,21.3818)"><path
             d="m 0,0 c -0.018,0.243 -0.04,0.498 -0.06,0.759 -1.555,0.122 -3.836,0.193 -7.113,0.055 -3.291,-0.138 -6.31,-0.389 -8.651,-0.625 0.029,-0.251 0.055,-0.507 0.086,-0.765 2.339,0.236 5.367,0.485 8.664,0.625 C -3.824,0.187 -1.56,0.121 0,0 Z m 0.052,-0.909 c -1.55,0.113 -3.773,0.169 -6.905,0.038 -3.358,-0.14 -6.438,-0.399 -8.795,-0.639 0.009,-0.076 0.013,-0.157 0.021,-0.236 2.357,0.24 5.439,0.498 8.796,0.639 3.124,0.13 5.344,0.074 6.89,-0.039 -0.002,0.08 -0.005,0.16 -0.007,0.237 z"
             style="fill:none;stroke:#e93f72;stroke-width:0.5;stroke-linecap:butt;stroke-linejoin:miter;stroke-miterlimit:10;stroke-dasharray:none;stroke-opacity:1"
             id="path170"
             inkscape:connector-curvature="0" /></g><g
           id="g172"
           transform="translate(30.873,27.1787)"><path
             d="m 0,0 c -0.105,0.2 -0.234,0.376 -0.382,0.529 -0.143,0.156 -0.304,0.293 -0.475,0.412 -0.169,0.123 -0.33,0.238 -0.481,0.349 -0.149,0.112 -0.28,0.224 -0.39,0.337 -0.109,0.116 -0.175,0.242 -0.197,0.379 -0.028,0.154 0.003,0.264 0.09,0.332 0.09,0.07 0.226,0.097 0.411,0.082 0.186,-0.019 0.359,-0.056 0.525,-0.116 0.16,-0.065 0.288,-0.128 0.373,-0.194 0.062,0.308 0.092,0.457 0.159,0.74 C -0.511,2.939 -0.692,3.017 -0.906,3.08 -1.12,3.146 -1.349,3.188 -1.594,3.21 -1.799,3.228 -1.986,3.221 -2.158,3.191 -2.333,3.158 -2.475,3.096 -2.593,3.005 -2.705,2.912 -2.785,2.785 -2.834,2.621 -2.882,2.458 -2.883,2.249 -2.837,1.996 -2.791,1.721 -2.7,1.48 -2.571,1.28 -2.446,1.08 -2.3,0.903 -2.137,0.753 c 0.16,-0.151 0.331,-0.285 0.502,-0.402 0.178,-0.117 0.34,-0.228 0.488,-0.338 0.144,-0.107 0.27,-0.22 0.371,-0.339 0.103,-0.118 0.163,-0.254 0.183,-0.413 0.049,-0.382 -0.139,-0.548 -0.597,-0.532 -0.187,0.005 -0.363,0.041 -0.537,0.102 -0.173,0.065 -0.313,0.124 -0.418,0.185 -0.07,-0.328 -0.105,-0.489 -0.185,-0.791 0.13,-0.069 0.312,-0.131 0.54,-0.186 0.224,-0.057 0.477,-0.089 0.755,-0.097 0.218,-0.007 0.411,0.013 0.578,0.062 0.166,0.049 0.302,0.125 0.409,0.232 0.108,0.106 0.185,0.246 0.228,0.422 0.049,0.176 0.052,0.395 0.026,0.653 C 0.176,-0.432 0.107,-0.203 0,0 m -4.229,0.424 c 0.03,-0.406 0.05,-0.608 0.077,-0.999 -0.015,-0.002 -0.019,0 -0.03,-0.001 C -4.278,-0.189 -4.329,0.01 -4.43,0.41 -4.821,1.389 -5.208,2.37 -5.631,3.336 -5.904,3.34 -6.043,3.344 -6.317,3.348 -6.434,2.375 -6.512,1.397 -6.6,0.422 c 0.026,-0.411 0.039,-0.619 0.061,-1.02 -0.012,0.002 -0.019,0.001 -0.032,0 -0.086,0.393 -0.134,0.596 -0.226,1.002 C -7.122,1.391 -7.445,2.377 -7.795,3.355 -8.236,3.354 -8.457,3.352 -8.9,3.344 c 0.707,-1.776 1.312,-3.588 2.014,-5.367 0.31,0.011 0.462,0.015 0.767,0.023 0.175,0.973 0.266,1.953 0.36,2.937 -0.015,0.35 -0.028,0.528 -0.047,0.87 0.018,0.002 0.024,0.001 0.04,0 0.097,-0.341 0.145,-0.516 0.246,-0.863 0.401,-0.975 0.801,-1.948 1.219,-2.915 0.281,0.002 0.42,0.004 0.693,0.005 0.17,1.734 0.214,3.471 0.321,5.21 -0.385,0.02 -0.577,0.029 -0.969,0.047 -0.002,-0.954 0.015,-1.912 0.027,-2.867 m -6.355,-0.287 c 0.669,0.03 1.005,0.043 1.673,0.064 -0.053,0.379 -0.077,0.57 -0.129,0.95 -0.663,-0.019 -0.995,-0.03 -1.657,-0.055 -0.069,0.565 -0.105,0.845 -0.169,1.368 0.727,0.024 1.094,0.036 1.811,0.05 -0.047,0.349 -0.067,0.515 -0.11,0.826 -0.938,-0.017 -1.876,-0.048 -2.812,-0.09 0.206,-1.811 0.424,-3.617 0.614,-5.429 0.979,0.054 1.957,0.101 2.934,0.14 -0.031,0.309 -0.055,0.477 -0.095,0.822 -0.757,-0.025 -1.136,-0.044 -1.89,-0.08 -0.059,0.543 -0.099,0.842 -0.17,1.434 m -2.76,0.312 c 0.095,-0.395 0.143,-0.595 0.239,-0.98 -0.018,0 -0.03,0 -0.048,-0.002 -0.182,0.386 -0.274,0.584 -0.456,0.979 -0.613,0.896 -1.219,1.791 -1.916,2.623 -0.307,-0.022 -0.463,-0.036 -0.771,-0.059 0.26,-1.823 0.512,-3.651 0.772,-5.475 0.336,0.028 0.509,0.04 0.863,0.069 l -0.34,2.689 c -0.1,0.403 -0.15,0.605 -0.252,0.999 0.018,0 0.024,10e-4 0.039,0.002 0.195,-0.393 0.292,-0.596 0.486,-0.997 0.6,-0.883 1.194,-1.767 1.867,-2.602 0.303,0.023 0.459,0.03 0.769,0.049 -0.188,1.825 -0.402,3.649 -0.609,5.471 -0.38,-0.02 -0.574,-0.031 -0.955,-0.053 0.099,-0.905 0.205,-1.809 0.312,-2.713"
             style="fill:#eff4f7;fill-opacity:1;fill-rule:nonzero;stroke:none"
             id="path174"
             inkscape:connector-curvature="0" /></g><g
           id="g176"
           transform="translate(30.873,27.1787)"><path
             d="m 0,0 c -0.105,0.2 -0.234,0.376 -0.382,0.529 -0.143,0.156 -0.304,0.293 -0.475,0.412 -0.169,0.123 -0.33,0.238 -0.481,0.349 -0.149,0.112 -0.28,0.224 -0.39,0.337 -0.109,0.116 -0.175,0.242 -0.197,0.379 -0.028,0.154 0.003,0.264 0.09,0.332 0.09,0.07 0.226,0.097 0.411,0.082 0.186,-0.019 0.359,-0.056 0.525,-0.116 0.16,-0.065 0.288,-0.128 0.373,-0.194 0.062,0.308 0.092,0.457 0.159,0.74 C -0.511,2.939 -0.692,3.017 -0.906,3.08 -1.12,3.146 -1.349,3.188 -1.594,3.21 -1.799,3.228 -1.986,3.221 -2.158,3.191 -2.333,3.158 -2.475,3.096 -2.593,3.005 -2.705,2.912 -2.785,2.785 -2.834,2.621 -2.882,2.458 -2.883,2.249 -2.837,1.996 -2.791,1.721 -2.7,1.48 -2.571,1.28 -2.446,1.08 -2.3,0.903 -2.137,0.753 c 0.16,-0.151 0.331,-0.285 0.502,-0.402 0.178,-0.117 0.34,-0.228 0.488,-0.338 0.144,-0.107 0.27,-0.22 0.371,-0.339 0.103,-0.118 0.163,-0.254 0.183,-0.413 0.049,-0.382 -0.139,-0.548 -0.597,-0.532 -0.187,0.005 -0.363,0.041 -0.537,0.102 -0.173,0.065 -0.313,0.124 -0.418,0.185 -0.07,-0.328 -0.105,-0.489 -0.185,-0.791 0.13,-0.069 0.312,-0.131 0.54,-0.186 0.224,-0.057 0.477,-0.089 0.755,-0.097 0.218,-0.007 0.411,0.013 0.578,0.062 0.166,0.049 0.302,0.125 0.409,0.232 0.108,0.106 0.185,0.246 0.228,0.422 0.049,0.176 0.052,0.395 0.026,0.653 C 0.176,-0.432 0.107,-0.203 0,0 Z m -4.229,0.424 c 0.03,-0.406 0.05,-0.608 0.077,-0.999 -0.015,-0.002 -0.019,0 -0.03,-0.001 C -4.278,-0.189 -4.329,0.01 -4.43,0.41 -4.821,1.389 -5.208,2.37 -5.631,3.336 -5.904,3.34 -6.043,3.344 -6.317,3.348 -6.434,2.375 -6.512,1.397 -6.6,0.422 c 0.026,-0.411 0.039,-0.619 0.061,-1.02 -0.012,0.002 -0.019,0.001 -0.032,0 -0.086,0.393 -0.134,0.596 -0.226,1.002 C -7.122,1.391 -7.445,2.377 -7.795,3.355 -8.236,3.354 -8.457,3.352 -8.9,3.344 c 0.707,-1.776 1.312,-3.588 2.014,-5.367 0.31,0.011 0.462,0.015 0.767,0.023 0.175,0.973 0.266,1.953 0.36,2.937 -0.015,0.35 -0.028,0.528 -0.047,0.87 0.018,0.002 0.024,0.001 0.04,0 0.097,-0.341 0.145,-0.516 0.246,-0.863 0.401,-0.975 0.801,-1.948 1.219,-2.915 0.281,0.002 0.42,0.004 0.693,0.005 0.17,1.734 0.214,3.471 0.321,5.21 -0.385,0.02 -0.577,0.029 -0.969,0.047 -0.002,-0.954 0.015,-1.912 0.027,-2.867 z m -6.355,-0.287 c 0.669,0.03 1.005,0.043 1.673,0.064 -0.053,0.379 -0.077,0.57 -0.129,0.95 -0.663,-0.019 -0.995,-0.03 -1.657,-0.055 -0.069,0.565 -0.105,0.845 -0.169,1.368 0.727,0.024 1.094,0.036 1.811,0.05 -0.047,0.349 -0.067,0.515 -0.11,0.826 -0.938,-0.017 -1.876,-0.048 -2.812,-0.09 0.206,-1.811 0.424,-3.617 0.614,-5.429 0.979,0.054 1.957,0.101 2.934,0.14 -0.031,0.309 -0.055,0.477 -0.095,0.822 -0.757,-0.025 -1.136,-0.044 -1.89,-0.08 -0.059,0.543 -0.099,0.842 -0.17,1.434 z m -2.76,0.312 c 0.095,-0.395 0.143,-0.595 0.239,-0.98 -0.018,0 -0.03,0 -0.048,-0.002 -0.182,0.386 -0.274,0.584 -0.456,0.979 -0.613,0.896 -1.219,1.791 -1.916,2.623 -0.307,-0.022 -0.463,-0.036 -0.771,-0.059 0.26,-1.823 0.512,-3.651 0.772,-5.475 0.336,0.028 0.509,0.04 0.863,0.069 l -0.34,2.689 c -0.1,0.403 -0.15,0.605 -0.252,0.999 0.018,0 0.024,10e-4 0.039,0.002 0.195,-0.393 0.292,-0.596 0.486,-0.997 0.6,-0.883 1.194,-1.767 1.867,-2.602 0.303,0.023 0.459,0.03 0.769,0.049 -0.188,1.825 -0.402,3.649 -0.609,5.471 -0.38,-0.02 -0.574,-0.031 -0.955,-0.053 0.099,-0.905 0.205,-1.809 0.312,-2.713 z"
             style="fill:none;stroke:#e93f72;stroke-width:0.5;stroke-linecap:butt;stroke-linejoin:miter;stroke-miterlimit:10;stroke-dasharray:none;stroke-opacity:1"
             id="path178"
             inkscape:connector-curvature="0" /></g><g
           id="g180"
           transform="translate(12.9531,11.0381)"><path
             d="m 0,0 c 0.125,4.343 -0.504,10.4 -1.104,14.3 -0.219,1.413 -0.626,4.476 -0.806,5.792 -0.012,0.092 -0.022,0.179 -0.023,0.267 -0.051,-0.002 -0.098,-0.005 -0.14,-0.009 -1.448,-0.118 -1.923,-0.935 -1.907,-2.411 0.018,-1.87 0.313,-6.738 0.773,-11.388 0.38,-3.813 0.871,-9.205 2.506,-8.86 0,0 0.656,0.691 0.701,2.309"
             style="fill:#eff4f7;fill-opacity:1;fill-rule:nonzero;stroke:none"
             id="path182"
             inkscape:connector-curvature="0" /></g><g
           id="g184"
           transform="translate(12.9531,11.0381)"><path
             d="m 0,0 c 0.125,4.343 -0.504,10.4 -1.104,14.3 -0.219,1.413 -0.626,4.476 -0.806,5.792 -0.012,0.092 -0.022,0.179 -0.023,0.267 -0.051,-0.002 -0.098,-0.005 -0.14,-0.009 -1.448,-0.118 -1.923,-0.935 -1.907,-2.411 0.018,-1.87 0.313,-6.738 0.773,-11.388 0.38,-3.813 0.871,-9.205 2.506,-8.86 0,0 0.656,0.691 0.701,2.309 z"
             style="fill:none;stroke:#e93f72;stroke-width:0.5;stroke-linecap:butt;stroke-linejoin:miter;stroke-miterlimit:10;stroke-dasharray:none;stroke-opacity:1"
             id="path186"
             inkscape:connector-curvature="0" /></g></g></g></g></svg>